<svg width="43" height="57" viewBox="0 0 43 57" fill="none" xmlns="http://www.w3.org/2000/svg">
<path d="M15.7898 5.39473C14.0884 5.13545 12.4266 4.88146 10.7645 4.62923C10.2161 4.54604 9.66421 4.48372 9.11942 4.38171C8.82096 4.32586 8.74024 4.43022 8.69169 4.70361C7.73733 10.0597 6.77345 15.4143 5.81135 20.7689C5.66302 21.5955 5.51588 22.4225 5.36397 23.2482C5.28176 23.6953 5.00802 23.9246 4.54544 23.8694C4.09626 23.8159 3.86333 23.4705 3.94971 22.9886C5.11555 16.502 6.28407 10.0156 7.45645 3.53009C7.56934 2.906 7.81001 2.75578 8.46382 2.85309C10.9694 3.22642 13.476 3.59212 15.9783 3.98398C16.3539 4.04277 16.5374 3.96899 16.6956 3.61828C17.0861 2.75167 17.52 1.90446 17.9439 1.05313C18.3371 0.263826 18.5763 0.200329 19.3063 0.677437C21.5275 2.12905 23.7519 3.57595 25.9641 5.04079C26.2641 5.23951 26.4446 5.23569 26.7097 4.98258C27.5616 4.17006 28.4394 3.3837 29.3136 2.59469C29.7869 2.16785 30.0419 2.17784 30.4866 2.63202C34.5393 6.77079 38.5911 10.9107 42.6415 15.0524C43.1335 15.556 43.1225 15.8961 42.5873 16.3988C39.7716 19.0451 36.9577 21.6928 34.1259 24.3221C33.7863 24.6372 33.6395 24.96 33.6243 25.4086C33.5474 27.6545 33.4125 29.8992 33.3696 32.1454C33.3428 33.5215 32.9729 34.7512 32.2484 35.9229C29.7256 40.0061 27.2348 44.1081 24.7328 48.2031C24.5898 48.4374 24.4668 48.6849 24.3125 48.9115C23.5506 50.0316 23.4332 51.2406 23.7424 52.5297C23.9637 53.4528 24.1409 54.3858 24.3319 55.3159C24.4564 55.9238 24.2574 56.286 23.7656 56.3721C23.3468 56.4456 23.04 56.1811 22.9248 55.6263C22.7243 54.6612 22.5423 53.6923 22.335 52.7287C21.971 51.0363 22.2838 49.4677 23.18 47.9955C25.2573 44.5849 27.3295 41.1717 29.4068 37.7614C30.0452 36.7134 30.693 35.6713 31.3364 34.6256C31.6789 34.0686 31.8717 33.4659 31.8997 32.813C31.9893 30.7503 32.0787 28.6878 32.1671 26.6253C32.171 26.5362 32.1677 26.4469 32.1677 26.3646C31.975 26.3028 31.9101 26.4428 31.8249 26.523C28.7 29.4577 25.5811 32.3991 22.4485 35.3262C22.0827 35.668 22.1682 35.7718 22.5962 35.8932C23.141 36.0478 23.3489 36.3862 23.2214 36.8048C23.0817 37.2643 22.7383 37.3977 22.1432 37.2225C20.3733 36.7025 19.7832 35.5149 20.4641 33.8046C21.2889 31.7339 22.1369 29.672 22.9569 27.5998C23.5786 26.028 23.8904 24.4088 23.5815 22.7197C23.4183 21.8272 23.0665 21.0388 22.2179 20.5678C21.5796 20.2136 21.0449 20.3065 20.7849 20.95C19.1586 24.9776 16.3054 28.1872 13.6341 31.5225C12.5031 32.9347 11.5348 34.4407 11.197 36.2577C11.1062 36.746 11.0999 37.239 11.099 37.7317C11.0951 40.1619 11.1419 42.5933 11.0808 45.0221C11.0445 46.4716 11.303 47.8397 11.9959 49.0876C13.1972 51.2524 13.1424 53.58 13.0682 55.9221C13.0545 56.3469 12.812 56.6003 12.3599 56.5982C11.9083 56.5961 11.6745 56.3498 11.6644 55.9168C11.6495 55.2771 11.6188 54.6354 11.6623 53.9986C11.7573 52.6105 11.457 51.3059 10.8357 50.078C9.92067 48.2701 9.5397 46.3776 9.65199 44.3562C9.72795 42.9899 9.66004 41.6159 9.67166 40.2454C9.67404 39.9523 9.59391 39.733 9.3869 39.514C7.8678 37.9048 7.87137 37.9057 5.48162 37.5283C4.44089 37.3639 3.40284 37.182 2.36598 36.9965C1.68745 36.8748 1.50933 36.6196 1.62609 35.9758C1.82149 34.8981 2.01212 33.8193 2.2233 32.7445C2.28526 32.4291 2.2379 32.1945 1.99276 31.9611C1.47328 31.4664 0.982704 30.9428 0.48289 30.4284C-0.165854 29.7605 -0.16496 29.5088 0.509997 28.8909C2.65461 26.9275 4.8019 24.9673 6.95187 23.0095C7.14489 22.8337 7.30722 22.6474 7.42339 22.4113C10.1724 16.8339 12.9255 11.2582 15.6772 5.68193C15.7084 5.61579 15.7302 5.54582 15.7898 5.39473ZM9.62966 37.7382C9.66093 37.5482 9.68089 37.4815 9.68208 37.4136C9.71395 35.7865 10.212 34.2926 11.0201 32.8906C12.1683 30.8978 13.6353 29.1305 15.0692 27.34C16.7709 25.2146 18.3594 23.0201 19.3963 20.4841C19.519 20.1839 19.7055 19.8999 19.9059 19.6412C20.4474 18.9431 21.1659 18.7064 22.0228 18.9592C23.6078 19.4272 24.5273 20.5182 24.9067 22.0691C25.3881 24.0372 25.1105 25.9562 24.3995 27.8197C23.729 29.5773 23.0028 31.3144 22.3085 33.0635C22.2471 33.2175 22.1033 33.3636 22.1998 33.5882C22.3112 33.4942 22.4118 33.4171 22.5039 33.3307C28.653 27.5422 34.7993 21.7511 40.9565 15.9705C41.2403 15.7039 41.173 15.5739 40.9401 15.3379C37.3687 11.7056 33.8021 8.06894 30.2495 4.41876C29.9382 4.09892 29.7771 4.07099 29.4322 4.38936C26.1727 7.39635 22.8935 10.3822 19.6191 13.3733C13.7902 18.6973 7.96282 24.0231 2.12441 29.3372C1.81732 29.6167 1.80957 29.7605 2.10356 30.0521C3.20119 31.1389 4.26902 32.2554 5.34878 33.3601C6.74754 34.7914 8.14749 36.2219 9.62966 37.7382ZM10.2769 19.84C10.4747 19.8326 10.5441 19.7124 10.6338 19.6307C15.4022 15.2788 20.1657 10.9213 24.9434 6.57882C25.2692 6.28251 25.1501 6.18903 24.8668 6.0053C23.0591 4.83237 21.2499 3.66091 19.4651 2.45447C19.0472 2.17226 18.923 2.2728 18.7267 2.67288C16.0218 8.18682 13.3002 13.6928 10.5831 19.2009C10.4824 19.4055 10.3856 19.6121 10.2769 19.84ZM6.06156 36.1869C5.12984 35.3294 4.28213 34.5495 3.48028 33.8116C3.40164 34.2496 3.31289 34.8079 3.19702 35.3605C3.14698 35.5998 3.15829 35.7295 3.4505 35.7709C4.29017 35.89 5.12508 36.0358 6.06156 36.1869Z" fill="#1F92CE"/>
<path d="M7.0208 32.1569C7.05893 31.8135 7.16378 31.4769 7.12595 31.1251C7.04523 30.3722 6.75868 29.7222 6.1984 29.189C5.52374 28.5461 5.52494 28.2724 6.19364 27.6704C10.5144 23.7809 14.8373 19.8935 19.1599 16.0058C21.841 13.5943 24.5295 11.1912 27.1971 8.76535C27.6296 8.37202 27.9638 8.26266 28.4955 8.62071C29.4135 9.23834 30.4254 9.32917 31.439 8.81796C31.9445 8.56251 32.3245 8.62924 32.7031 9.06549C34.0876 10.6603 35.4994 12.2321 36.8928 13.8198C37.3593 14.3513 37.3379 14.7285 36.7904 15.1094C35.7502 15.8338 35.3958 16.8389 35.5873 18.025C35.6776 18.5856 35.5221 18.9428 35.117 19.3176C32.3627 21.866 29.6277 24.435 26.8862 26.9969C26.8054 27.0724 26.7286 27.1527 26.6407 27.2188C26.3187 27.4622 25.992 27.4858 25.6965 27.1868C25.3921 26.8787 25.3647 26.533 25.6718 26.2146C26.0033 25.871 26.3598 25.5512 26.7083 25.224C29.096 22.9836 31.4825 20.7427 33.8758 18.508C34.064 18.3322 34.1609 18.1617 34.1418 17.8939C34.0524 16.6348 34.4018 15.5092 35.2609 14.56C35.4128 14.3928 35.4291 14.2878 35.271 14.1103C34.1725 12.8747 33.0841 11.6306 31.9975 10.3854C31.8697 10.2393 31.7514 10.2214 31.5626 10.2763C30.4271 10.6065 29.2994 10.6226 28.2134 10.0961C27.9212 9.95473 27.8098 10.1682 27.6576 10.3046C25.3292 12.3929 23.0029 14.4836 20.6775 16.5752C16.4374 20.3891 12.2012 24.2077 7.95192 28.0117C7.61921 28.3094 7.54176 28.4958 7.83158 28.8918C8.41242 29.6861 8.63582 30.6189 8.54258 31.5904C8.50803 31.9499 8.59829 32.1728 8.84879 32.3968C9.06712 32.5917 9.27831 32.8039 9.44958 33.0388C9.66582 33.3348 9.57974 33.6358 9.33877 33.8828C9.09035 34.137 8.76002 34.2144 8.48897 33.9821C8.01596 33.577 7.58555 33.1217 7.14978 32.6754C7.01604 32.5387 7.00472 32.3447 7.0208 32.1569Z" fill="#1F92CE"/>
</svg>
