<svg width="31" height="31" viewBox="0 0 31 31" fill="none" xmlns="http://www.w3.org/2000/svg">
<path d="M15.8101 30C24.968 29.479 31.3796 22.3744 29.7451 12.9345C28.4144 5.2484 21.045 0.100471 13.5922 1.13114C6.03687 2.17587 0.225253 9.32962 1.08434 17.1119C1.89945 24.1223 6.11739 27.3996 9.63585 28.8798C10.455 29.2245 11.5559 29.7272 11.9279 29.6458C12.2998 29.5644 12.1805 27.4558 12.1805 26.4394C9.88802 26.7996 9.10358 25.8767 8.61644 25.3315C8.06381 24.7131 7.73886 24.0772 7.17463 23.1433C6.61041 22.2095 5.58956 22.4292 5.4821 21.889C5.37464 21.3487 7.63126 21.4952 9.25216 23.5369C10.4253 25.0232 11.6776 24.5754 12.3505 24.1504C12.3795 23.8402 12.4488 23.5354 12.5566 23.244C12.6951 22.8694 13.0759 22.6428 13.0162 22.3864C12.9565 22.1301 9.89218 22.3019 8.14477 19.7985C6.88264 17.9903 6.83679 15.85 7.33281 14.2565C7.6655 13.1876 8.22056 12.4338 8.59838 11.9981C8.36238 11.4818 8.23624 10.9201 8.2283 10.3502C8.22074 9.74324 8.34724 9.14238 8.59838 8.59236C9.97383 8.634 11.3035 9.10704 12.4071 9.94735C13.3815 9.61265 14.4001 9.43152 15.4278 9.41019C16.5791 9.38705 17.7258 9.56454 18.8188 9.93505C19.3706 9.43042 20.0106 9.03695 20.7053 8.77532C21.235 8.57669 21.79 8.45744 22.353 8.42127C22.6408 8.97866 22.7963 9.59751 22.8068 10.2277C22.8155 10.8163 22.6973 11.3997 22.4606 11.9363C22.8714 12.443 23.52 13.3829 23.822 14.7188C23.9296 15.1947 24.5179 17.7922 22.8197 20.0274C21.0419 22.3674 18.0829 22.0085 17.9494 22.3316C17.8158 22.6548 18.5173 23.2541 18.8472 24.5109C19.177 25.7678 19.0373 28.17 19.0373 28.17" stroke="black" stroke-width="0.5" stroke-miterlimit="10" stroke-linecap="round" stroke-linejoin="round"/>
</svg>
