<svg width="63" height="41" viewBox="0 0 63 41" fill="none" xmlns="http://www.w3.org/2000/svg">
<path d="M29.747 40.7544C23.958 40.7544 18.1689 40.7547 12.3799 40.7544C11.471 40.7544 11.263 40.5402 11.2421 39.6476C11.1658 36.3964 11.6646 33.2625 13.1498 30.3214C15.2481 26.166 18.4541 23.1098 22.8334 21.4616C30.2982 18.6519 37.0457 20.0579 42.8477 25.4325C45.863 28.2258 47.5428 31.7895 48.1281 35.8366C48.3147 37.1252 48.3386 38.4239 48.3244 39.7226C48.3153 40.5331 48.0691 40.7541 47.234 40.7541C41.4048 40.7547 35.576 40.7544 29.747 40.7544ZM29.7719 39.2188C35.2218 39.2188 40.6719 39.2092 46.1216 39.233C46.671 39.2355 46.7943 39.0772 46.7681 38.574C46.7023 37.3161 46.6496 36.0597 46.3678 34.8253C45.5407 31.1987 43.7527 28.1275 40.8666 25.7189C36.5452 22.1124 31.5472 20.82 26.0574 22.0446C18.0979 23.82 12.7984 30.5901 12.7952 38.615C12.7951 39.1076 12.9288 39.2314 13.4225 39.2298C18.8721 39.2123 24.322 39.2188 29.7719 39.2188Z" fill="#1F92CE"/>
<path d="M20.5617 9.81397C20.5671 4.74117 24.6602 0.707125 29.7988 0.709962C34.9148 0.712958 39.0352 4.79083 39.0242 9.84014C39.0133 14.8497 34.8953 18.903 29.8031 18.9162C24.6896 18.9296 20.5562 14.8587 20.5617 9.81397ZM22.1239 9.75043C22.0883 13.9237 25.4624 17.3205 29.686 17.3634C33.9498 17.4064 37.4272 14.0635 37.4618 9.88869C37.4968 5.68312 34.1045 2.27477 29.8559 2.24593C25.574 2.21676 22.16 5.53036 22.1239 9.75043Z" fill="#1F92CE"/>
<path d="M49.1003 7.07129C53.0076 7.07113 56.1543 10.1751 56.1319 14.0076C56.1097 17.8161 52.9627 20.9066 49.1048 20.908C45.219 20.9099 42.0573 17.7781 42.0819 13.9521C42.1064 10.1128 45.2088 7.07145 49.1003 7.07129ZM49.1072 8.60788C46.0813 8.60631 43.6593 10.9748 43.6499 13.9441C43.6408 16.9191 46.0603 19.3486 49.037 19.3535C52.1222 19.3584 54.5767 16.9623 54.5682 13.9537C54.5596 11.0082 52.1091 8.6093 49.1072 8.60788Z" fill="#1F92CE"/>
<path d="M56.898 37.0338C55.2014 37.0335 53.5045 37.0409 51.8083 37.0299C51.154 37.0256 50.7994 36.73 50.8302 36.2493C50.8649 35.708 51.219 35.5076 51.7196 35.5027C52.498 35.4953 53.2764 35.4978 54.0548 35.4978C56.3304 35.4972 58.6057 35.4904 60.881 35.5043C61.2692 35.5065 61.4382 35.4393 61.4369 34.9952C61.4206 28.8276 56.5084 23.4988 50.271 22.945C48.508 22.7884 46.7655 22.9644 45.0798 23.545C44.7987 23.6416 44.503 23.7673 44.2173 23.5918C43.954 23.43 43.7708 23.201 43.8008 22.8617C43.8349 22.4782 44.0666 22.2597 44.4133 22.1416C45.6253 21.7282 46.8711 21.4396 48.1521 21.3983C54.4192 21.196 58.9571 23.8929 61.7425 29.4139C62.8244 31.559 63.0763 33.8859 62.9817 36.2538C62.9602 36.7981 62.6361 37.0284 61.9278 37.0319C60.2512 37.0393 58.5746 37.0341 56.898 37.0338Z" fill="#1F92CE"/>
<path d="M16.8347 15.0755C16.8543 18.1546 14.3099 20.6751 11.1828 20.6739C8.07771 20.6724 5.54508 18.1854 5.52719 15.1204C5.5093 12.0359 8.04161 9.53777 11.1862 9.53809C14.3183 9.53809 16.8148 11.9857 16.8347 15.0755ZM6.78576 15.0769C6.77889 17.4982 8.7542 19.4265 11.2372 19.4223C13.6327 19.4183 15.5798 17.463 15.5724 15.0688C15.5652 12.6792 13.616 10.7733 11.1808 10.7745C8.76458 10.7756 6.79247 12.7063 6.78576 15.0769Z" fill="#1F92CE"/>
<path d="M4.9108 33.6507C6.27623 33.6504 7.64166 33.6562 9.00693 33.6474C9.53327 33.6442 9.81888 33.406 9.79412 33.0193C9.76616 32.5839 9.48119 32.4226 9.07817 32.4185C8.45169 32.4124 7.8252 32.4146 7.19887 32.4146C5.36765 32.4143 3.53626 32.4088 1.7052 32.4198C1.39291 32.4217 1.25682 32.3675 1.25761 32.0102C1.27071 27.0465 5.22404 22.7579 10.2438 22.3122C11.6627 22.1862 13.0652 22.328 14.4217 22.7951C14.6479 22.873 14.8859 22.974 15.1159 22.8326C15.3277 22.7025 15.4753 22.5183 15.451 22.2449C15.4237 21.9365 15.2372 21.7604 14.9584 21.6654C13.9827 21.3327 12.9802 21.1004 11.9491 21.0671C6.90559 20.9044 3.25353 23.0749 1.01194 27.5182C0.141052 29.2443 -0.0613344 31.117 0.0147004 33.0226C0.0321117 33.4607 0.292803 33.6461 0.862904 33.6487C2.2122 33.6553 3.5615 33.651 4.9108 33.6507Z" fill="#1F92CE"/>
</svg>
