<svg width="31" height="31" viewBox="0 0 31 31" fill="none" xmlns="http://www.w3.org/2000/svg">
<circle cx="15.3931" cy="15.4504" r="14.4963" stroke="black" stroke-width="0.5"/>
<path d="M12.1197 12.3057H9.62512V20.1566H12.1197V12.3057Z" stroke="black" stroke-width="0.5"/>
<path d="M18.8676 12.1368C18.7756 12.1255 18.6779 12.1198 18.5802 12.1141C17.1835 12.0574 16.396 12.8743 16.1202 13.226C16.0454 13.3224 16.0109 13.3791 16.0109 13.3791V12.3297H13.6256V20.1806H16.0109H16.1202C16.1202 19.3808 16.1202 18.5866 16.1202 17.7868C16.1202 17.3556 16.1202 16.9245 16.1202 16.4934C16.1202 15.9602 16.0799 15.3929 16.3501 14.9051C16.58 14.4966 16.9938 14.2924 17.4594 14.2924C18.8389 14.2924 18.8676 15.5234 18.8676 15.6368C18.8676 15.6425 18.8676 15.6482 18.8676 15.6482V20.2146H21.3621V15.0923C21.3621 13.3394 20.4597 12.307 18.8676 12.1368Z" stroke="black" stroke-width="0.5"/>
<path d="M10.8724 11.2906C11.6723 11.2906 12.3208 10.6506 12.3208 9.86114C12.3208 9.07165 11.6723 8.43164 10.8724 8.43164C10.0724 8.43164 9.42395 9.07165 9.42395 9.86114C9.42395 10.6506 10.0724 11.2906 10.8724 11.2906Z" stroke="black" stroke-width="0.5"/>
</svg>
