<svg xmlns="http://www.w3.org/2000/svg" version="1.1" xmlns:xlink="http://www.w3.org/1999/xlink" xmlns:svgjs="http://svgjs.dev/svgjs" width="1500" height="518" viewBox="0 0 1500 518"><g transform="matrix(1,0,0,1,-0.9090909090909918,-0.9371115346946794)"><svg viewBox="0 0 396 137" data-background-color="#ffffff" preserveAspectRatio="xMidYMid meet" height="518" width="1500" xmlns="http://www.w3.org/2000/svg" xmlns:xlink="http://www.w3.org/1999/xlink"><g id="tight-bounds" transform="matrix(1,0,0,1,0.2400000000000091,0.24784610087485248)"><svg viewBox="0 0 395.52 136.50406184599382" height="136.50406184599382" width="395.52"><g><svg viewBox="0 0 657.2002106526184 226.81659132313206" height="136.50406184599382" width="395.52"><g transform="matrix(1,0,0,1,261.6802106526184,57.625425428763165)"><svg viewBox="0 0 395.52 111.56574046560573" height="111.56574046560573" width="395.52"><g id="textblocktransform"><svg viewBox="0 0 395.52 111.56574046560573" height="111.56574046560573" width="395.52" id="textblock"><g><svg viewBox="0 0 395.52 73.83982134881643" height="73.83982134881643" width="395.52"><g transform="matrix(1,0,0,1,0,0)"><svg width="395.52" viewBox="2.32 -39.06 273.29 51.02" height="73.83982134881643" data-palette-color="#94a3b8"><path d="M22.09-6.35L22.09-6.35 22.58-2.08Q20.73-0.68 18.82-0.04 16.92 0.61 14.16 0.61L14.16 0.61Q10.89 0.61 8.2-0.92 5.52-2.44 3.92-5.26 2.32-8.08 2.32-11.96L2.32-11.96Q2.32-15.65 3.87-18.7 5.42-21.75 8.28-23.57 11.13-25.39 15.01-25.39L15.01-25.39Q17.46-25.39 19.23-24.82 21-24.24 22.34-23.32L22.34-23.32 21.48-18.92Q19.85-20.14 18.19-20.75 16.53-21.36 14.65-21.36L14.65-21.36Q11.4-21.36 9.18-18.95 6.96-16.53 6.96-12.21L6.96-12.21Q6.96-8.28 9.03-5.85 11.11-3.42 14.65-3.42L14.65-3.42Q16.85-3.42 18.68-4.17 20.51-4.93 22.09-6.35ZM33.2-14.16L33.2 0 28.68 0 28.68-15.01Q28.68-18.6 28.28-21.12 27.88-23.63 27.46-24.9L27.46-24.9 31.86-24.9Q32.05-24.39 32.24-23.49 32.42-22.58 32.59-21.66 32.76-20.73 32.83-20.14L32.83-20.14Q34.62-22.68 36.86-24.04 39.11-25.39 40.77-25.39L40.77-25.39Q42.82-25.39 44.05-24.23 45.29-23.07 45.83-21.22 46.38-19.36 46.38-17.21L46.38-17.21 42.48-16.36Q42.48-18.19 41.79-19.59 41.11-21 39.67-21L39.67-21Q38.64-21 37.34-19.98 36.03-18.97 34.89-17.4 33.74-15.82 33.2-14.16L33.2-14.16ZM52.24-24.9L61.52-1.46 59.44 4.03 51.26-16.24Q50.58-17.9 49.68-19.97 48.77-22.05 47.36-24.9L47.36-24.9 52.24-24.9ZM68.48-16.24L68.48-16.24 62.62 0Q60.93 4.66 59.31 7.15 57.69 9.64 55.94 10.56 54.19 11.47 52.12 11.47L52.12 11.47Q50.46 11.47 48.97 10.93 47.48 10.38 46.14 9.4L46.14 9.4 47.6 5.49Q48.38 6.13 49.65 6.73 50.92 7.32 52.12 7.32L52.12 7.32Q53.22 7.32 54.26 6.7 55.29 6.08 56.4 4.21 57.51 2.34 58.83-1.34L58.83-1.34Q59.03-1.9 59.36-2.81 59.69-3.71 60.1-4.88L60.1-4.88Q61.01-7.45 62.23-10.91 63.45-14.38 64.74-18.05 66.04-21.73 67.13-24.9L67.13-24.9 72.02-24.9Q70.75-22.07 69.92-20.01 69.09-17.94 68.48-16.24ZM75.07-24.9L75.07-24.9 79.46-24.9Q79.73-24.29 80-23.12 80.27-21.95 80.44-20.26L80.44-20.26Q82.17-22.53 84.47-23.96 86.76-25.39 89.47-25.39L89.47-25.39Q92.25-25.39 94.34-23.8 96.43-22.22 97.59-19.43 98.75-16.65 98.75-13.06L98.75-13.06Q98.75-8.89 97.25-5.82 95.74-2.76 93.23-1.07 90.72 0.61 87.64 0.61L87.64 0.61Q85.69 0.61 84.11-0.12 82.54-0.85 80.8-2.08L80.8-2.08 80.8 3.66Q80.8 6.59 80.95 8.5 81.1 10.4 81.41 11.96L81.41 11.96 76.29 11.96Q76.29 11.96 76.29 10.56 76.29 9.16 76.29 6.86 76.29 4.57 76.29 1.84 76.29-0.88 76.29-3.58 76.29-6.27 76.29-8.47 76.29-10.67 76.29-11.84L76.29-11.84Q76.29-16.41 76.09-19.62 75.9-22.83 75.07-24.9ZM80.8-14.04L80.8-14.04 80.8-6.35Q82.49-5.18 83.59-4.54 84.68-3.91 85.6-3.66 86.52-3.42 87.64-3.42L87.64-3.42Q89.37-3.42 90.87-4.49 92.38-5.57 93.3-7.57 94.23-9.57 94.23-12.33L94.23-12.33Q94.23-16.41 92.74-18.82 91.25-21.24 88.62-21.24L88.62-21.24Q86.52-21.24 84.34-19.41 82.17-17.58 80.8-14.04ZM119.62-5.25L119.62-5.25 119.62-1.34Q117.93-0.27 116.4 0.17 114.86 0.61 113.56 0.61L113.56 0.61Q111.66 0.61 110.1-0.01 108.53-0.63 107.61-2.21 106.68-3.78 106.68-6.59L106.68-6.59Q106.68-7.47 106.68-9.47 106.68-11.47 106.68-14.2 106.68-16.92 106.68-20.03 106.68-23.14 106.68-26.29 106.68-29.44 106.68-32.23L106.68-32.23 111.2-32.23Q111.2-29.1 111.2-25.55 111.2-22 111.2-18.68 111.2-15.36 111.2-12.9 111.2-10.45 111.2-9.52L111.2-9.52Q111.2-7.01 111.53-5.69 111.86-4.37 112.54-3.89 113.22-3.42 114.32-3.42L114.32-3.42Q116.32-3.42 119.62-5.25ZM119.13-24.29L119.13-20.75 101.8-20.75 101.8-24.29 119.13-24.29ZM123.77-12.33L123.77-12.33Q123.77-16.53 125.39-19.45 127.01-22.36 129.71-23.88 132.41-25.39 135.61-25.39L135.61-25.39Q138.98-25.39 141.53-23.88 144.08-22.36 145.52-19.45 146.96-16.53 146.96-12.33L146.96-12.33Q146.96-8.13 145.34-5.25 143.71-2.37 141.03-0.88 138.34 0.61 135.12 0.61L135.12 0.61Q131.77 0.61 129.21-0.88 126.65-2.37 125.21-5.25 123.77-8.13 123.77-12.33ZM128.28-12.33L128.28-12.33Q128.28-8.06 130.25-5.68 132.21-3.3 135.36-3.3L135.36-3.3Q138.32-3.3 140.38-5.68 142.44-8.06 142.44-12.33L142.44-12.33Q142.44-16.63 140.48-19.06 138.51-21.48 135.36-21.48L135.36-21.48Q132.41-21.48 130.35-19.06 128.28-16.63 128.28-12.33ZM169.66-23.44L169.66-23.44 168.81-19.17Q167.59-19.87 165.73-20.68 163.88-21.48 161.61-21.48L161.61-21.48Q158.92-21.48 157.88-20.45 156.85-19.41 156.85-18.31L156.85-18.31Q156.85-17.46 157.25-16.86 157.65-16.26 158.9-15.75 160.14-15.23 162.7-14.65L162.7-14.65Q164.93-14.16 166.75-13.28 168.56-12.4 169.66-10.94 170.76-9.47 170.76-7.2L170.76-7.2Q170.76-5 169.5-3.23 168.25-1.46 166.12-0.43 164 0.61 161.36 0.61L161.36 0.61Q158.41 0.61 155.91-0.23 153.4-1.07 151.96-2.2L151.96-2.2 153.18-6.59Q154.84-5.1 157.2-4.2 159.56-3.3 161.48-3.3L161.48-3.3Q163.63-3.3 165-4.31 166.37-5.32 166.37-6.59L166.37-6.59Q166.37-7.52 165.83-8.29 165.29-9.06 163.84-9.75 162.39-10.45 159.65-11.11L159.65-11.11Q156.7-11.84 155.14-12.89 153.57-13.94 153.01-15.25 152.45-16.55 152.45-18.07L152.45-18.07Q152.45-18.92 152.89-20.14 153.33-21.36 154.37-22.57 155.4-23.78 157.24-24.58 159.07-25.39 161.85-25.39L161.85-25.39Q164.51-25.39 166.45-24.77 168.39-24.15 169.66-23.44ZM180.89-14.16L180.89-14.16 180.89 0 176.37 0Q176.37-2.95 176.37-6.29 176.37-9.62 176.37-12.94 176.37-16.26 176.37-19.21 176.37-22.17 176.37-24.35 176.37-26.54 176.37-27.59L176.37-27.59Q176.37-31.52 176.33-34.51 176.28-37.5 176.01-39.06L176.01-39.06 180.89-39.06Q180.89-36.21 180.89-33.07 180.89-29.93 180.89-27.12 180.89-24.32 180.89-22.45 180.89-20.58 180.89-20.26L180.89-20.26Q182.7-22.8 185.15-24.1 187.6-25.39 190.17-25.39L190.17-25.39Q194.07-25.39 196.15-22.84 198.22-20.29 198.22-15.26L198.22-15.26Q198.22-14.16 198.22-12.33 198.22-10.5 198.22-8.33 198.22-6.15 198.22-3.98 198.22-1.81 198.22 0L198.22 0 193.71 0Q193.71-1.64 193.71-3.58 193.71-5.52 193.71-7.43 193.71-9.35 193.71-10.94 193.71-12.52 193.71-13.43L193.71-13.43Q193.71-16.48 193.17-18.15 192.63-19.82 191.55-20.47 190.46-21.12 188.83-21.12L188.83-21.12Q187.07-21.12 185.46-20.07 183.84-19.02 182.64-17.42 181.43-15.82 180.89-14.16ZM227.27 0L227.27 0 223 0Q222.66-0.78 222.4-2.28 222.15-3.78 222.03-5.38 221.9-6.98 221.9-8.06L221.9-8.06 221.9-10.01Q220.95-7.5 219.46-5.04 217.97-2.59 215.97-0.99 213.97 0.61 211.41 0.61L211.41 0.61Q208.33 0.61 206.21-2.11 204.08-4.83 204.08-10.01L204.08-10.01Q204.08-12.92 204.86-15.66 205.64-18.41 207.26-20.61 208.87-22.8 211.36-24.1 213.85-25.39 217.27-25.39L217.27-25.39Q219.63-25.39 221.73-25.09 223.83-24.78 225.69-24.29L225.69-24.29 225.69-12.94Q225.69-8.33 226.13-5.19 226.57-2.05 227.27 0ZM221.17-17.94L221.17-17.94 221.17-21.04Q220.56-21.19 219.65-21.34 218.73-21.48 216.9-21.48L216.9-21.48Q213.73-21.48 211.91-19.84 210.09-18.19 209.34-15.58 208.6-12.96 208.6-10.01L208.6-10.01Q208.6-7.18 209.65-5.36 210.7-3.54 212.14-3.54L212.14-3.54Q213.43-3.54 214.73-4.68 216.02-5.81 217.18-7.6 218.34-9.4 219.23-11.39 220.12-13.38 220.65-15.14 221.17-16.89 221.17-17.94ZM237.89-14.16L237.89 0 233.38 0 233.38-15.01Q233.38-18.6 232.97-21.12 232.57-23.63 232.16-24.9L232.16-24.9 236.55-24.9Q236.75-24.39 236.93-23.49 237.11-22.58 237.28-21.66 237.45-20.73 237.53-20.14L237.53-20.14Q239.31-22.68 241.55-24.04 243.8-25.39 245.46-25.39L245.46-25.39Q247.51-25.39 248.74-24.23 249.98-23.07 250.53-21.22 251.08-19.36 251.08-17.21L251.08-17.21 247.17-16.36Q247.17-18.19 246.49-19.59 245.8-21 244.36-21L244.36-21Q243.34-21 242.03-19.98 240.72-18.97 239.58-17.4 238.43-15.82 237.89-14.16L237.89-14.16ZM275.46-11.84L275.46-11.84 257.3-11.84 257.3-15.26 271.09-15.26Q271.09-18.41 269.37-20.07 267.65-21.73 264.99-21.73L264.99-21.73Q261.79-21.73 259.97-19.46 258.15-17.19 258.15-12.33L258.15-12.33Q258.15-7.81 260.36-5.62 262.57-3.42 265.97-3.42L265.97-3.42Q268.33-3.42 270.62-3.97 272.9-4.52 275.12-5.86L275.12-5.86 275.61-1.83Q273.02-0.49 270.6 0.06 268.19 0.61 265.36 0.61L265.36 0.61Q262.26 0.61 259.58-0.83 256.91-2.27 255.27-5.1 253.64-7.93 253.64-12.08L253.64-12.08Q253.64-16.14 255.07-19.12 256.49-22.09 259.12-23.74 261.74-25.39 265.36-25.39L265.36-25.39Q268.38-25.39 270.35-24.37 272.31-23.34 273.44-21.63 274.56-19.92 275.02-17.86 275.49-15.8 275.49-13.75L275.49-13.75Q275.49-13.43 275.49-12.81 275.49-12.18 275.46-11.84Z" opacity="1" transform="matrix(1,0,0,1,0,0)" fill="#94a3b8" class="wordmark-text-0" data-fill-palette-color="primary" id="text-0"></path></svg></g></svg></g><g transform="matrix(1,0,0,1,0,91.27163101355961)"><svg viewBox="0 0 232.209792 20.294109452046104" height="20.294109452046104" width="232.209792"><g transform="matrix(1,0,0,1,0,0)"><svg width="232.209792" viewBox="1.23 -31.95 472.79999999999995 41.33" height="20.294109452046104" data-palette-color="#cbd5e1"><path d="M5.43 0L1.23 0 11.23-31.95 17.78-31.95 27.8 0 23.6 0 14.83-29.15 14.2-29.15 5.43 0ZM21.78-9.43L7.23-9.43 7.23-12.88 21.78-12.88 21.78-9.43ZM53.4-7.3L53.4-7.3Q48.42-7.3 45.76-9.47 43.1-11.65 43.1-15.7L43.1-15.7 43.1-16.32Q43.1-18.85 44.13-20.73 45.17-22.6 47.45-23.66 49.72-24.73 53.4-24.83L53.4-24.83 65.84-25.23 65.84-22.03 58.5-22.28 58.47-22.1Q60.2-21.75 61.3-20.9 62.4-20.05 62.93-18.78 63.47-17.5 63.47-15.8L63.47-15.8 63.47-15.25Q63.47-11.38 60.92-9.34 58.37-7.3 53.4-7.3ZM53.22 6.15L53.22 6.15 53.8 6.15Q56.05 6.15 57.66 5.81 59.27 5.48 60.15 4.75 61.02 4.03 61.02 2.83L61.02 2.83 61.02 2.73Q61.02 1.33 60.01 0.59 59-0.15 56.55-0.38L56.55-0.38 49.65-1 50.8-1.05Q49.4-0.85 48.33-0.4 47.27 0.05 46.67 0.79 46.07 1.53 46.07 2.63L46.07 2.63 46.07 2.68Q46.07 3.95 46.95 4.73 47.82 5.5 49.42 5.83 51.02 6.15 53.22 6.15ZM53.72 9.38L53 9.38Q49.7 9.38 47.31 8.81 44.92 8.25 43.61 6.99 42.3 5.73 42.3 3.6L42.3 3.6 42.3 3.5Q42.3 2 43.01 1 43.72 0 44.93-0.58 46.15-1.15 47.65-1.35L47.65-1.35 47.62-1.5Q45.57-1.85 44.6-2.71 43.62-3.58 43.62-4.95L43.62-4.95 43.62-4.98Q43.62-5.93 44.06-6.6 44.5-7.28 45.38-7.68 46.27-8.08 47.65-8.18L47.65-8.18 47.65-8.68 52.3-7.5 50.4-7.55Q48.7-7.53 48.05-7.14 47.4-6.75 47.4-5.98L47.4-5.98 47.4-5.95Q47.4-5.13 48.32-4.7 49.25-4.28 51.47-4.03L51.47-4.03 57.4-3.43Q61.27-3.03 63.05-1.56 64.82-0.1 64.82 2.75L64.82 2.75 64.82 2.88Q64.82 5.15 63.47 6.6 62.12 8.05 59.65 8.71 57.17 9.38 53.72 9.38L53.72 9.38ZM53.35-10.3L53.35-10.3Q55.45-10.3 56.83-10.91 58.22-11.53 58.93-12.76 59.65-14 59.65-15.8L59.65-15.8 59.65-16.4Q59.65-18.15 58.96-19.38 58.27-20.6 56.9-21.24 55.52-21.88 53.45-21.88L53.45-21.88 53.3-21.88Q51.05-21.88 49.63-21.19 48.22-20.5 47.58-19.26 46.95-18.03 46.95-16.38L46.95-16.38 46.95-15.8Q46.95-14 47.66-12.78 48.37-11.55 49.8-10.93 51.22-10.3 53.35-10.3ZM73.37-14.93L73.37-14.93 72.44-18.05 73.44-18.1Q74.24-21.2 76.19-22.99 78.14-24.78 81.37-24.78L81.37-24.78Q82.17-24.78 82.81-24.65 83.44-24.53 83.94-24.35L83.94-24.35 84.19-20.43Q83.57-20.63 82.81-20.75 82.04-20.88 81.12-20.88L81.12-20.88Q78.37-20.88 76.33-19.35 74.29-17.82 73.37-14.93ZM73.57 0L69.52 0 69.52-24.4 73.47-24.4 73.27-17.2 73.57-16.9 73.57 0ZM97.87 0.63L97.87 0.63Q92.62 0.63 89.9-2.21 87.19-5.05 87.19-10.38L87.19-10.38 87.19-14.1Q87.19-19.4 89.92-22.23 92.64-25.05 97.87-25.05L97.87-25.05Q103.12-25.05 105.83-22.23 108.54-19.4 108.54-14.1L108.54-14.1 108.54-10.38Q108.54-5.05 105.83-2.21 103.12 0.63 97.87 0.63ZM97.87-2.68L97.87-2.68Q101.12-2.68 102.8-4.6 104.49-6.53 104.49-10.15L104.49-10.15 104.49-14.33Q104.49-17.93 102.8-19.84 101.12-21.75 97.87-21.75L97.87-21.75Q94.64-21.75 92.94-19.84 91.24-17.93 91.24-14.33L91.24-14.33 91.24-10.15Q91.24-6.53 92.94-4.6 94.64-2.68 97.87-2.68ZM113.86-24.4L117.89-24.4 117.89-9.22Q117.89-7.3 118.43-5.86 118.96-4.42 120.19-3.64 121.41-2.85 123.49-2.85L123.49-2.85Q125.44-2.85 126.84-3.56 128.24-4.28 129.13-5.53 130.01-6.78 130.34-8.35L130.34-8.35 131.06-5.48 130.19-5.48Q129.81-3.83 128.81-2.46 127.81-1.1 126.13-0.29 124.44 0.53 121.96 0.53L121.96 0.53Q119.09 0.53 117.3-0.56 115.51-1.65 114.69-3.74 113.86-5.83 113.86-8.78L113.86-8.78 113.86-24.4ZM130.16-24.4L134.21-24.4 134.21 0 130.16 0 130.34-5.85 130.16-6.1 130.16-24.4ZM152.84 0.53L152.84 0.53Q150.59 0.53 148.94-0.23 147.29-0.98 146.26-2.38 145.24-3.78 144.89-5.63L144.89-5.63 143.56-5.63 144.74-9.43Q144.84-7.23 145.72-5.76 146.61-4.3 148.14-3.58 149.66-2.85 151.59-2.85L151.59-2.85Q154.66-2.85 156.3-4.65 157.94-6.45 157.94-9.93L157.94-9.93 157.94-14.6Q157.94-18.05 156.31-19.85 154.69-21.65 151.59-21.65L151.59-21.65Q149.74-21.65 148.31-20.93 146.89-20.2 145.95-18.95 145.01-17.7 144.66-16.1L144.66-16.1 143.66-18.93 144.84-18.93Q145.24-20.6 146.2-21.96 147.16-23.33 148.85-24.14 150.54-24.95 153.01-24.95L153.01-24.95Q157.41-24.95 159.71-22.21 162.01-19.48 162.01-14.28L162.01-14.28 162.01-10.23Q162.01-4.98 159.7-2.23 157.39 0.53 152.84 0.53ZM144.84 8.6L140.81 8.6 140.81-24.4 144.86-24.4 144.69-18.53 144.74-17.28 144.74-7 144.71-6.18 144.84 0.68 144.84 8.6ZM191.25 0.53L191.25 0.53Q189 0.53 187.36-0.23 185.71-0.98 184.68-2.38 183.66-3.78 183.31-5.63L183.31-5.63 181.98-5.63 183.16-9.43Q183.25-7.23 184.14-5.76 185.03-4.3 186.56-3.58 188.08-2.85 190-2.85L190-2.85Q193.08-2.85 194.72-4.65 196.36-6.45 196.36-9.93L196.36-9.93 196.36-14.6Q196.36-18.05 194.73-19.85 193.11-21.65 190-21.65L190-21.65Q188.16-21.65 186.73-20.93 185.31-20.2 184.37-18.95 183.43-17.7 183.08-16.1L183.08-16.1 182.08-18.93 183.25-18.93Q183.66-20.6 184.62-21.96 185.58-23.33 187.27-24.14 188.96-24.95 191.43-24.95L191.43-24.95Q195.83-24.95 198.13-22.21 200.43-19.48 200.43-14.28L200.43-14.28 200.43-10.23Q200.43-4.98 198.12-2.23 195.81 0.53 191.25 0.53ZM183.25 8.6L179.23 8.6 179.23-24.4 183.28-24.4 183.11-18.53 183.16-17.28 183.16-7 183.13-6.18 183.25 0.68 183.25 8.6ZM224.58 0L220.55 0 220.73-5.93 220.58-6.55 220.58-14.33 220.6-15.75Q220.6-18.73 219.09-20.15 217.58-21.58 214.3-21.58L214.3-21.58Q211.68-21.58 209.49-20.83 207.3-20.08 205.6-19.07L205.6-19.07 205.98-22.53Q206.93-23.1 208.24-23.66 209.55-24.23 211.24-24.6 212.93-24.98 214.95-24.98L214.95-24.98Q217.58-24.98 219.41-24.34 221.25-23.7 222.39-22.5 223.53-21.3 224.05-19.6 224.58-17.9 224.58-15.8L224.58-15.8 224.58 0ZM212.15 0.53L212.15 0.53Q208.53 0.53 206.59-1.24 204.65-3 204.65-6.28L204.65-6.28 204.65-7Q204.65-10.38 206.74-12.04 208.83-13.7 213.38-14.35L213.38-14.35 221.1-15.45 221.33-12.5 213.88-11.43Q211.08-11.03 209.88-10.06 208.68-9.1 208.68-7.23L208.68-7.23 208.68-6.83Q208.68-4.9 209.87-3.88 211.05-2.85 213.43-2.85L213.43-2.85Q215.53-2.85 217.03-3.58 218.53-4.3 219.45-5.53 220.38-6.75 220.7-8.25L220.7-8.25 221.33-5.5 220.55-5.5Q220.2-3.9 219.24-2.53 218.28-1.15 216.55-0.31 214.83 0.53 212.15 0.53ZM239.43-3.78L241.75-3.78 239.63-2.85 246.93-24.4 251.1-24.4 239.63 8.6 235.53 8.6 239.38-2.55 241.15-1 236.55-1 228.58-24.4 232.78-24.4 239.43-3.78ZM290 0L285.95 0 285.95-15.28Q285.95-17.2 285.46-18.61 284.97-20.03 283.86-20.8 282.75-21.58 280.87-21.58L280.87-21.58Q279.1-21.58 277.8-20.85 276.5-20.13 275.7-18.91 274.9-17.7 274.57-16.15L274.57-16.15 273.95-19.03 274.45-19.03Q274.85-20.6 275.8-21.95 276.75-23.3 278.37-24.13 280-24.95 282.4-24.95L282.4-24.95Q285.12-24.95 286.79-23.88 288.45-22.8 289.22-20.74 290-18.68 290-15.73L290-15.73 290 0ZM259.52 0L255.47 0 255.47-24.4 259.52-24.4 259.35-18.55 259.52-18.3 259.52 0ZM274.75 0L270.72 0 270.72-15.28Q270.72-17.2 270.24-18.61 269.75-20.03 268.65-20.8 267.55-21.58 265.67-21.58L265.67-21.58Q263.87-21.58 262.57-20.85 261.27-20.13 260.47-18.89 259.67-17.65 259.35-16.07L259.35-16.07 258.6-18.95 259.5-18.95Q259.87-20.6 260.8-21.96 261.72-23.33 263.31-24.14 264.9-24.95 267.17-24.95L267.17-24.95Q270.55-24.95 272.31-23.2 274.07-21.45 274.52-18.1L274.52-18.1Q274.65-17.6 274.7-17.01 274.75-16.43 274.75-15.85L274.75-15.85 274.75 0ZM306.52 0.55L306.52 0.55Q300.95 0.55 298.12-2.18 295.3-4.9 295.3-9.98L295.3-9.98 295.3-14.33Q295.3-19.48 297.92-22.26 300.55-25.05 305.6-25.05L305.6-25.05Q309-25.05 311.27-23.79 313.55-22.53 314.7-20.2 315.85-17.88 315.85-14.65L315.85-14.65 315.85-13.75Q315.85-12.95 315.78-12.15 315.72-11.35 315.62-10.58L315.62-10.58 311.9-10.58Q311.95-11.78 311.96-12.85 311.97-13.93 311.97-14.83L311.97-14.83Q311.97-17.05 311.26-18.59 310.55-20.13 309.13-20.94 307.72-21.75 305.6-21.75L305.6-21.75Q302.45-21.75 300.87-19.93 299.3-18.1 299.3-14.7L299.3-14.7 299.3-12.38 299.32-11.88 299.32-9.55Q299.32-8.03 299.77-6.8 300.22-5.58 301.18-4.69 302.15-3.8 303.63-3.34 305.12-2.88 307.17-2.88L307.17-2.88Q309.55-2.88 311.6-3.5 313.65-4.13 315.45-5.2L315.45-5.2 315.07-1.7Q313.45-0.68 311.3-0.06 309.15 0.55 306.52 0.55ZM314.77-10.58L297.42-10.58 297.42-13.63 314.77-13.63 314.77-10.58ZM341.62 0L337.57 0 337.57-15.18Q337.57-17.15 337.03-18.57 336.49-20 335.28-20.79 334.07-21.58 331.97-21.58L331.97-21.58Q330.04-21.58 328.63-20.85 327.22-20.13 326.34-18.89 325.47-17.65 325.12-16.07L325.12-16.07 324.39-18.95 325.27-18.95Q325.67-20.6 326.67-21.96 327.67-23.33 329.36-24.14 331.04-24.95 333.49-24.95L333.49-24.95Q336.39-24.95 338.18-23.85 339.97-22.75 340.79-20.69 341.62-18.63 341.62-15.63L341.62-15.63 341.62 0ZM325.29 0L321.24 0 321.24-24.4 325.29-24.4 325.12-18.55 325.29-18.32 325.29 0ZM356.77 0.5L356.77 0.5Q353.94 0.5 352.22-0.35 350.49-1.2 349.72-2.93 348.94-4.65 348.94-7.23L348.94-7.23 348.94-22.63 352.94-22.63 352.94-7.7Q352.94-5.3 354.04-4.16 355.14-3.03 357.74-3.03L357.74-3.03Q359.22-3.03 360.58-3.35 361.94-3.68 363.14-4.28L363.14-4.28 362.77-0.8Q361.59-0.2 360.02 0.15 358.44 0.5 356.77 0.5ZM362.52-20.8L344.94-20.8 344.94-24.05 362.89-24.05 362.52-20.8ZM352.84-23.65L348.97-23.65 348.94-30.5 353.02-31.03 352.84-23.65ZM375.29 0.55L375.29 0.55Q372.34 0.55 370.14-0.09 367.94-0.73 366.49-1.48L366.49-1.48 366.11-5.23Q367.94-4.28 370.13-3.58 372.31-2.88 375.09-2.88L375.09-2.88Q377.91-2.88 379.34-3.78 380.76-4.67 380.76-6.45L380.76-6.45 380.76-6.73Q380.76-7.88 380.23-8.63 379.69-9.38 378.29-9.95 376.89-10.53 374.31-11.1L374.31-11.1Q371.24-11.78 369.46-12.69 367.69-13.6 366.93-14.95 366.16-16.3 366.16-18.25L366.16-18.25 366.16-18.48Q366.16-21.68 368.39-23.33 370.61-24.98 375.09-24.98L375.09-24.98Q377.96-24.98 380.07-24.33 382.19-23.68 383.54-22.88L383.54-22.88 383.91-19.45Q382.29-20.4 380.19-21.03 378.09-21.65 375.46-21.65L375.46-21.65Q373.56-21.65 372.39-21.26 371.21-20.88 370.69-20.16 370.16-19.45 370.16-18.45L370.16-18.45 370.16-18.25Q370.16-17.15 370.69-16.39 371.21-15.63 372.57-15.06 373.94-14.5 376.36-13.98L376.36-13.98Q379.49-13.35 381.32-12.48 383.16-11.6 383.96-10.26 384.76-8.93 384.76-6.83L384.76-6.83 384.76-6.4Q384.76-2.95 382.36-1.2 379.96 0.55 375.29 0.55ZM419.78 0L415.76 0 415.93-5.93 415.78-6.55 415.78-14.33 415.81-15.75Q415.81-18.73 414.3-20.15 412.78-21.58 409.51-21.58L409.51-21.58Q406.88-21.58 404.69-20.83 402.51-20.08 400.81-19.07L400.81-19.07 401.18-22.53Q402.13-23.1 403.44-23.66 404.76-24.23 406.44-24.6 408.13-24.98 410.16-24.98L410.16-24.98Q412.78-24.98 414.62-24.34 416.46-23.7 417.6-22.5 418.73-21.3 419.26-19.6 419.78-17.9 419.78-15.8L419.78-15.8 419.78 0ZM407.36 0.53L407.36 0.53Q403.73 0.53 401.8-1.24 399.86-3 399.86-6.28L399.86-6.28 399.86-7Q399.86-10.38 401.94-12.04 404.03-13.7 408.58-14.35L408.58-14.35 416.31-15.45 416.53-12.5 409.08-11.43Q406.28-11.03 405.08-10.06 403.88-9.1 403.88-7.23L403.88-7.23 403.88-6.83Q403.88-4.9 405.07-3.88 406.26-2.85 408.63-2.85L408.63-2.85Q410.73-2.85 412.23-3.58 413.73-4.3 414.66-5.53 415.58-6.75 415.91-8.25L415.91-8.25 416.53-5.5 415.76-5.5Q415.41-3.9 414.44-2.53 413.48-1.15 411.76-0.31 410.03 0.53 407.36 0.53ZM438 0.53L438 0.53Q435.75 0.53 434.11-0.23 432.45-0.98 431.43-2.38 430.41-3.78 430.06-5.63L430.06-5.63 428.73-5.63 429.91-9.43Q430-7.23 430.89-5.76 431.78-4.3 433.31-3.58 434.83-2.85 436.75-2.85L436.75-2.85Q439.83-2.85 441.47-4.65 443.11-6.45 443.11-9.93L443.11-9.93 443.11-14.6Q443.11-18.05 441.48-19.85 439.86-21.65 436.75-21.65L436.75-21.65Q434.91-21.65 433.48-20.93 432.06-20.2 431.12-18.95 430.18-17.7 429.83-16.1L429.83-16.1 428.83-18.93 430-18.93Q430.41-20.6 431.37-21.96 432.33-23.33 434.02-24.14 435.7-24.95 438.18-24.95L438.18-24.95Q442.58-24.95 444.88-22.21 447.18-19.48 447.18-14.28L447.18-14.28 447.18-10.23Q447.18-4.98 444.87-2.23 442.56 0.53 438 0.53ZM430 8.6L425.98 8.6 425.98-24.4 430.03-24.4 429.86-18.53 429.91-17.28 429.91-7 429.88-6.18 430 0.68 430 8.6ZM464.85 0.53L464.85 0.53Q462.6 0.53 460.95-0.23 459.3-0.98 458.28-2.38 457.25-3.78 456.9-5.63L456.9-5.63 455.58-5.63 456.75-9.43Q456.85-7.23 457.74-5.76 458.63-4.3 460.15-3.58 461.68-2.85 463.6-2.85L463.6-2.85Q466.68-2.85 468.32-4.65 469.95-6.45 469.95-9.93L469.95-9.93 469.95-14.6Q469.95-18.05 468.33-19.85 466.7-21.65 463.6-21.65L463.6-21.65Q461.75-21.65 460.33-20.93 458.9-20.2 457.97-18.95 457.03-17.7 456.68-16.1L456.68-16.1 455.68-18.93 456.85-18.93Q457.25-20.6 458.22-21.96 459.18-23.33 460.87-24.14 462.55-24.95 465.03-24.95L465.03-24.95Q469.43-24.95 471.73-22.21 474.03-19.48 474.03-14.28L474.03-14.28 474.03-10.23Q474.03-4.98 471.72-2.23 469.4 0.53 464.85 0.53ZM456.85 8.6L452.83 8.6 452.83-24.4 456.88-24.4 456.7-18.53 456.75-17.28 456.75-7 456.73-6.18 456.85 0.68 456.85 8.6Z" opacity="1" transform="matrix(1,0,0,1,0,0)" fill="#cbd5e1" class="slogan-text-1" data-fill-palette-color="secondary" id="text-1"></path></svg></g></svg></g></svg></g></svg></g><g><svg viewBox="0 0 226.81659132313206 226.81659132313206" height="226.81659132313206" width="226.81659132313206"><g><svg></svg></g><g id="icon-0"><svg viewBox="0 0 226.81659132313206 226.81659132313206" height="226.81659132313206" width="226.81659132313206"><g><path d="M0 113.408c0-62.634 50.775-113.408 113.408-113.408 62.634 0 113.408 50.775 113.409 113.408 0 62.634-50.775 113.408-113.409 113.409-62.634 0-113.408-50.775-113.408-113.409zM113.408 220.158c58.956 0 106.749-47.793 106.75-106.75 0-58.956-47.793-106.749-106.75-106.749-58.956 0-106.749 47.793-106.749 106.749 0 58.956 47.793 106.749 106.749 106.75z" data-fill-palette-color="accent" fill="#1e293b" stroke="transparent"></path></g><g transform="matrix(1,0,0,1,48.251666285120606,61.7559419020147)"><svg viewBox="0 0 130.31325875289085 103.30470751910266" height="103.30470751910266" width="130.31325875289085"><g><svg xmlns="http://www.w3.org/2000/svg" xmlns:xlink="http://www.w3.org/1999/xlink" version="1.1" x="0" y="0" viewBox="9.152 11.244 86.848 68.848" enable-background="new 0 0 100 100" xml:space="preserve" height="103.30470751910266" width="130.31325875289085" class="icon-dxe-0" data-fill-palette-color="accent" id="dxe-0"><g fill="#1e293b" data-fill-palette-color="accent"><path fill="#1e293b" d="M78.241 74.71H14.534V32.588H36.353A41 41 0 0 1 38.775 30.759 44.5 44.5 0 0 1 44.874 27.207H9.152V80.092H83.622V57.362L78.24 62.768V74.71z" data-fill-palette-color="accent"></path><path fill="#1e293b" d="M25.592 68.943C25.665 68.7 25.743 68.461 25.822 68.222L25.87 68.08C25.949 67.851 26.032 67.625 26.117 67.402L26.166 67.279A19 19 0 0 1 26.426 66.643L26.452 66.583C26.547 66.362 26.647 66.146 26.749 65.932L26.814 65.797A26 26 0 0 1 27.179 65.082C27.282 64.89 27.388 64.7 27.495 64.515L27.547 64.426C27.663 64.228 27.782 64.032 27.904 63.839L27.983 63.716C28.108 63.524 28.233 63.33 28.364 63.144L28.403 63.088C28.527 62.91 28.653 62.735 28.782 62.563L28.856 62.464A17 17 0 0 1 29.357 61.826C29.503 61.648 29.65 61.472 29.801 61.3L29.806 61.294C29.956 61.123 30.11 60.954 30.265 60.787L30.359 60.686C30.511 60.524 30.665 60.366 30.822 60.208L30.912 60.119A24 24 0 0 1 31.374 59.675L31.419 59.632C31.585 59.479 31.752 59.328 31.922 59.179L32.03 59.085C32.198 58.939 32.368 58.795 32.54 58.654L32.623 58.587C32.785 58.455 32.949 58.325 33.114 58.198L33.193 58.137A17 17 0 0 1 33.85 57.65C34.034 57.518 34.218 57.389 34.404 57.262L34.465 57.221C34.642 57.102 34.819 56.986 34.999 56.869L35.104 56.802C35.292 56.682 35.482 56.564 35.674 56.448L35.796 56.375C35.994 56.256 36.192 56.14 36.393 56.026L36.407 56.017C36.605 55.905 36.805 55.794 37.006 55.687L37.13 55.621A31 31 0 0 1 38.429 54.961L38.486 54.934C38.694 54.834 38.902 54.74 39.111 54.643L39.246 54.582C39.453 54.487 39.661 54.396 39.87 54.308L39.972 54.265C40.168 54.181 40.364 54.1 40.561 54.019L40.655 53.982C40.867 53.895 41.079 53.813 41.292 53.731L41.432 53.676C41.647 53.596 41.862 53.516 42.078 53.438 42.102 53.428 42.127 53.42 42.151 53.412L42.762 53.196 42.882 53.157C43.097 53.083 43.313 53.011 43.528 52.943L43.666 52.897C43.888 52.827 44.11 52.756 44.333 52.69L44.351 52.684C44.571 52.618 44.79 52.552 45.01 52.489L45.145 52.451 45.798 52.268 45.925 52.234C46.135 52.178 46.346 52.124 46.557 52.069L46.614 52.054C46.837 51.997 47.059 51.943 47.281 51.888L47.422 51.856A39 39 0 0 1 48.184 51.68 45 45 0 0 1 48.893 51.524C49.112 51.477 49.331 51.432 49.549 51.389 49.596 51.379 49.642 51.369 49.689 51.361L50.346 51.234C50.37 51.229 50.395 51.226 50.42 51.22L51.035 51.109 51.152 51.088C51.367 51.051 51.58 51.015 51.795 50.98L51.927 50.959 52.584 50.855 52.596 50.854 53.242 50.759C53.285 50.754 53.327 50.747 53.369 50.74 53.578 50.71 53.789 50.683 53.997 50.656 54.035 50.649 54.076 50.646 54.115 50.639L54.719 50.563C54.735 50.561 54.752 50.56 54.768 50.557 54.978 50.531 55.187 50.507 55.394 50.483 55.437 50.479 55.48 50.474 55.522 50.468 55.727 50.446 55.928 50.424 56.13 50.404L56.225 50.394C56.415 50.374 56.605 50.356 56.794 50.338L56.871 50.33 57.469 50.277 57.587 50.267 58.177 50.218 58.231 50.215C58.417 50.2 58.601 50.187 58.785 50.174L58.879 50.167C59.067 50.153 59.254 50.142 59.438 50.129 59.476 50.127 59.513 50.126 59.551 50.122L60.111 50.09 60.122 50.089 60.669 50.061 60.767 50.057 61.29 50.033 61.38 50.03C61.55 50.023 61.718 50.016 61.884 50.011L61.91 50.01 62.418 49.994 62.511 49.992 62.995 49.981 63.057 49.979 63.506 49.971 63.555 49.97C63.711 49.968 63.864 49.964 64.013 49.964L64.089 49.963 64.53 49.958H65.436L65.741 49.96H65.808L66.153 49.964C66.255 49.965 66.356 49.966 66.453 49.969L66.515 49.97 67.089 49.98 67.143 49.982 67.39 49.987 67.4 49.988C67.485 49.989 67.566 49.991 67.644 49.995H67.688L67.9 50.002H67.905L68.116 50.009 68.146 50.01 68.304 50.014C68.333 50.015 68.36 50.017 68.389 50.017L68.515 50.021 68.621 50.024 68.654 50.025 68.767 50.028 68.785 50.029 68.861 50.03H68.882L68.952 50.031 68.969 65.468 96 38.317 68.922 11.244 68.934 26.578C53.41 26.578 25.592 33.81 25.592 68.943" data-fill-palette-color="accent"></path></g></svg></g></svg></g></svg></g></svg></g></svg></g><defs></defs></svg><rect width="395.52" height="136.50406184599382" fill="none" stroke="none" visibility="hidden"></rect></g></svg></g></svg>