<?xml version="1.0" standalone="no"?>
<!DOCTYPE svg PUBLIC "-//W3C//DTD SVG 20010904//EN"
 "http://www.w3.org/TR/2001/REC-SVG-20010904/DTD/svg10.dtd">
<svg version="1.0" xmlns="http://www.w3.org/2000/svg"
 width="512.000000pt" height="512.000000pt" viewBox="0 0 512.000000 512.000000"
 preserveAspectRatio="xMidYMid meet">
<metadata>
Created by potrace 1.14, written by Peter Selinger 2001-2017
</metadata>
<g transform="translate(0.000000,512.000000) scale(0.100000,-0.100000)"
fill="#000000" stroke="none">
<path d="M340 4631 c-108 -35 -200 -115 -248 -219 l-27 -57 0 -1795 0 -1795
27 -57 c31 -67 103 -147 162 -182 103 -60 -55 -56 2306 -56 2361 0 2203 -4
2306 56 59 35 131 115 162 182 l27 57 0 1795 0 1795 -27 57 c-31 67 -103 147
-162 182 -103 60 56 56 -2310 55 -2038 0 -2164 -1 -2216 -18z m4408 -106 c73
-22 154 -99 182 -171 20 -55 20 -64 18 -1272 l-3 -1217 -30 -54 c-16 -29 -47
-68 -68 -87 -82 -69 100 -64 -2287 -64 -2393 0 -2205 -5 -2289 67 -23 19 -54
58 -69 87 l-27 51 0 1235 0 1235 22 40 c28 50 48 73 95 109 77 58 -58 55 2264
55 1888 1 2146 -1 2192 -14z m193 -3193 c-25 -92 -111 -178 -202 -202 -24 -7
-804 -9 -2200 -8 l-2164 3 -41 22 c-63 34 -97 66 -129 125 -29 52 -30 57 -33
216 l-4 163 61 -40 c34 -21 85 -45 114 -53 43 -11 434 -13 2227 -13 l2175 0
55 23 c30 12 75 37 100 55 l45 34 3 -144 c1 -79 -2 -161 -7 -181z"/>
<path d="M808 4193 c-8 -10 -18 -40 -22 -68 -13 -103 -97 -187 -204 -204 -90
-14 -82 66 -82 -826 0 -622 3 -795 13 -803 6 -5 34 -13 62 -17 116 -17 196
-96 212 -210 3 -25 11 -53 19 -62 12 -17 104 -18 1754 -18 1712 0 1742 0 1756
19 8 11 14 31 14 44 0 107 93 208 210 227 89 14 80 -75 80 819 0 893 8 813
-82 827 -107 17 -191 101 -204 204 -4 28 -14 58 -22 68 -14 16 -110 17 -1752
17 -1642 0 -1738 -1 -1752 -17z m1942 -444 c161 -77 281 -235 336 -444 28
-106 26 -324 -4 -427 -92 -323 -334 -514 -593 -470 -290 50 -498 374 -476 741
12 196 82 366 202 487 113 115 208 155 360 151 91 -2 106 -5 175 -38z m-1361
-454 c19 -4 53 -25 77 -47 130 -120 62 -334 -112 -354 -63 -8 -114 8 -161 49
-131 115 -74 324 97 358 19 3 42 5 50 3 8 -1 30 -6 49 -9z m2508 -21 c114 -65
136 -215 47 -314 -94 -104 -263 -86 -330 34 -105 187 96 386 283 280z"/>
</g>
</svg>
