<svg width="30" height="29" viewBox="0 0 30 29" fill="none" xmlns="http://www.w3.org/2000/svg">
<path d="M29.369 14.5041C29.369 22.3722 22.9907 28.7505 15.1227 28.7505C7.25464 28.7505 0.876343 22.3722 0.876343 14.5041C0.876343 6.63611 7.25464 0.257812 15.1227 0.257812C22.9907 0.257812 29.369 6.63611 29.369 14.5041Z" fill="#B6CCE3" stroke="#B2B2B2" stroke-width="0.5"/>
<path d="M7.28059 14.5842L7.28064 14.5843L7.28806 14.5811C11.5144 12.7397 14.3304 11.5267 15.7382 10.9412C17.752 10.1036 18.9622 9.61454 19.7364 9.33361C20.5149 9.05111 20.8264 8.98943 21.0541 8.98542C21.0944 8.98471 21.1703 8.98965 21.2523 9.00924C21.3359 9.02921 21.4068 9.05989 21.4539 9.09812C21.5276 9.1579 21.5547 9.24151 21.5713 9.33874C21.5882 9.43732 21.6095 9.67116 21.5931 9.84356C21.3762 12.123 20.4343 17.6752 19.9539 20.2434C19.7551 21.3059 19.3942 21.5075 19.186 21.5266C18.8389 21.5586 18.5225 21.4469 18.1774 21.2441C18.0041 21.1423 17.8292 21.021 17.6417 20.8878C17.6109 20.8659 17.5798 20.8437 17.5483 20.8213C17.3904 20.7087 17.2237 20.5899 17.0495 20.4757C16.4136 20.0588 15.9159 19.7206 15.4216 19.384L15.3561 19.3394C14.8836 19.0176 14.4085 18.6941 13.815 18.3029C13.4702 18.0757 13.3017 17.8951 13.2293 17.7565C13.1663 17.6359 13.1696 17.5363 13.2199 17.4217C13.2776 17.2901 13.3965 17.1441 13.5738 16.9637C13.6506 16.8855 13.7336 16.8055 13.8224 16.7199C13.8338 16.7089 13.8453 16.6978 13.8569 16.6866C13.9577 16.5894 14.0643 16.4859 14.1697 16.3763C14.217 16.3272 14.4525 16.1083 14.789 15.7956C15.1744 15.4374 15.6922 14.9561 16.2116 14.4656C16.6935 14.0105 17.1728 13.551 17.5368 13.1854C17.7184 13.0029 17.8738 12.8413 17.9871 12.7142C18.0435 12.651 18.0924 12.593 18.1297 12.5432C18.1483 12.5184 18.1664 12.4925 18.1818 12.4667C18.1946 12.445 18.2163 12.406 18.2274 12.3586C18.2395 12.3069 18.2445 12.2298 18.2327 12.1506C18.221 12.0715 18.1866 11.9507 18.0826 11.8583C17.9796 11.7667 17.8598 11.7454 17.7705 11.7447C17.6855 11.744 17.6061 11.7621 17.5623 11.772L17.5611 11.7723C17.5166 11.7824 17.473 11.8055 17.455 11.815L17.4532 11.8159C17.4251 11.8308 17.3908 11.8504 17.3515 11.8736C17.2724 11.9205 17.1643 11.9875 17.0282 12.074C16.7555 12.2473 16.3638 12.5027 15.8539 12.8397C14.8338 13.514 13.3363 14.5176 11.3619 15.8504L11.3619 15.8504L11.3603 15.8515C10.8047 16.233 10.3321 16.397 9.9351 16.3884C9.70665 16.3834 9.35193 16.3167 8.94727 16.2152C8.54842 16.1152 8.12024 15.9865 7.75359 15.8673C7.63599 15.8291 7.52435 15.794 7.4189 15.7608C7.09992 15.6604 6.83755 15.5779 6.63802 15.4812C6.50834 15.4184 6.43361 15.362 6.3943 15.3137C6.36294 15.2752 6.35089 15.2392 6.35783 15.1839C6.36138 15.1555 6.39175 15.0772 6.55298 14.9575C6.70769 14.8426 6.94641 14.7171 7.28059 14.5842Z" fill="white" stroke="#B2B2B2" stroke-width="0.5"/>
</svg>
