<svg width="29" height="29" viewBox="0 0 29 29" fill="none" xmlns="http://www.w3.org/2000/svg">
<path d="M28.7427 14.4963C28.7427 22.3644 22.3644 28.7427 14.4963 28.7427C6.6283 28.7427 0.25 22.3644 0.25 14.4963C0.25 6.6283 6.6283 0.25 14.4963 0.25C22.3644 0.25 28.7427 6.6283 28.7427 14.4963Z" fill="#B6CCE3" stroke="#B2B2B2" stroke-width="0.5"/>
<path d="M23.2084 7.37515C22.4502 7.9099 21.6109 8.3189 20.7225 8.5864C20.2457 8.03818 19.6121 7.64961 18.9073 7.47326C18.2024 7.2969 17.4605 7.34126 16.7817 7.60034C16.1029 7.85942 15.52 8.32072 15.112 8.92184C14.7039 9.52297 14.4903 10.2349 14.5 10.9614V11.7531C13.1088 11.7891 11.7302 11.4806 10.4871 10.8549C9.24394 10.2292 8.17485 9.30573 7.37502 8.16681C7.37502 8.16681 4.20835 15.2918 11.3334 18.4585C9.70294 19.5652 7.76069 20.1201 5.79169 20.0418C12.9167 24.0001 21.625 20.0418 21.625 10.9376C21.6243 10.7171 21.6031 10.4972 21.5617 10.2806C22.3697 9.48375 22.9398 8.47771 23.2084 7.37515Z" fill="white" stroke="#B2B2B2" stroke-width="0.5" stroke-linecap="round" stroke-linejoin="round"/>
</svg>
